# xmcd
#
# Track frame offsets: 
#        150
#        18265
#        39595
#        61535
#        93713
#        113119
#        129182
#        153587
#        173008
#        208745
#        230019
#        247557
#
# Disc length: 3564 seconds
#
# Revision: 2
# Processed by: cddbd v1.5.2PL0 Copyright (c) Steve Scherf et al.
# Submitted via: ExactAudioCopy v1.0b6
#
DISCID=8e0dea0c
DTITLE=Various Artist - Above The Groove Gospel (2003)
DYEAR=2003
DGENRE=Gospel
TTITLE0=Fred Hammond - You Are My Daily Bread
TTITLE1=Trin-i-tee 5:7 - Lord
TTITLE2=John P. Kee - I Won't Let Go
TTITLE3=Hezekiah Walker and LFC - We Made It
TTITLE4=Commissioned - I'm Going On
TTITLE5=Dorinda Clark-Cole - If It Had Not Been For The Lord
TTITLE6=Tonéx - God Has Not 4Got
TTITLE7=Canton Spirituals - Drug Me
TTITLE8=Marvin Sapp - I Believe
TTITLE9=Deitrick Haddon - Stand Still
TTITLE10=Chicago Mass Choir - I Cannot Tell It All
TTITLE11=Soundz Of Praise - I Love To Praise Your Name
EXTD=Provident Music
EXTT0=Fred Hammond, Noel Hall, Kim Rutherford
EXTT1=Carvin G. Haggins, Andre Harris, Taleb Johnson
EXTT2=John P. Kee
EXTT3=David Frazier
EXTT4=Michael A. Brooks
EXTT5=Dorinda Clark-Cole
EXTT6=A. Williams
EXTT7=Harvey Watkins, Jr.
EXTT8=Percy Bady
EXTT9=Deitrick Haddon
EXTT10=Kelvon Carter
EXTT11=Paul Wright III, Lisa Shipman
PLAYORDER=
